<?xml version="1.0" encoding="utf-8"?>
<!-- Generator: Adobe Illustrator 19.0.0, SVG Export Plug-In . SVG Version: 6.00 Build 0)  -->
<svg version="1.1" id="レイヤー_1" xmlns="http://www.w3.org/2000/svg" xmlns:xlink="http://www.w3.org/1999/xlink" x="0px"
	 y="0px" viewBox="0 0 408 69" style="enable-background:new 0 0 408 69;" xml:space="preserve">
<g id="XMLID_3_">
	<path id="XMLID_4_" d="M30.6,34.5c1.3-4.7,3.2-8.8,5.6-12.4c2.4-3.6,4-5.4,5-5.4c0.1,0,0.2,0,0.2,0.1c0,0.1,0.1,0.2,0.1,0.4
		c0,0-0.1,0.2-0.2,0.5c-1.6,3.6-2.9,8.8-3.6,15.5c0.3,0,0.8-0.1,1.3-0.2s1-0.2,1.2-0.2c1-2.7,1.8-4.5,2.4-5.4
		c0.6-0.9,1.3-1.4,1.9-1.4c0.4,0,0.7,0.2,0.9,0.5s0.3,0.8,0.3,1.3c0,0.9-0.3,1.8-0.9,2.7c-0.6,0.9-1.4,1.6-2.5,2.2
		c-0.2,1.3-0.5,2.6-0.8,3.8c-0.3,1.2-0.7,2.5-1.1,3.7l-3.3,0.7c0.4-1.3,0.9-2.6,1.3-3.7c0.4-1.2,0.8-2.2,1.2-3.2
		c-0.3,0-0.6,0-0.9,0.1c-0.3,0-0.8,0.1-1.5,0.3c-1.4,6.1-3.8,10.7-7.2,13.8c-3.4,3.1-7.6,4.7-12.6,4.7c-3,0-5.4-0.7-7.2-2.1
		c-1.7-1.4-2.6-3.3-2.6-5.7c0-1.6,0.4-3,1.3-4.1c0.9-1.1,1.9-1.7,3.2-1.7c1.1,0,1.9,0.3,2.5,0.9c0.6,0.6,0.9,1.5,0.9,2.6
		c0,0.8-0.2,1.5-0.6,1.9c-0.4,0.5-1.1,0.8-2,1c-1.2,0.3-1.9,0.6-2.2,0.9c-0.3,0.3-0.5,0.8-0.5,1.4c0,0.9,0.6,1.8,1.8,2.5
		s2.6,1.1,4.3,1.1c3.1,0,5.8-1.3,8-3.8c2.2-2.5,4.2-6.6,5.9-12.3c-2.2,0.6-4.3,1.6-6.2,3.2c-1.9,1.6-2.9,2.3-3,2.3
		c-0.1,0-0.2,0-0.2-0.1c-0.1-0.1-0.1-0.2-0.1-0.3c0-0.7,1.1-1.8,3.2-3.3C26,36.1,28.2,35.1,30.6,34.5z M21.2,34.3
		c-1.7,0-3-0.6-4-1.8c-1-1.2-1.5-2.8-1.5-4.9c0-2.2,0.7-4.5,2.2-7s3.4-4.8,5.9-6.8c2-1.6,4-2.8,6.1-3.6C32,9.4,34.1,9,36.1,9
		c2.1,0,4.6,0.5,7.6,1.4c2.9,0.9,4.7,1.4,5.5,1.4c0.8,0,1.6-0.2,2.3-0.7c0.7-0.5,1.1-0.7,1.2-0.7c0.1,0,0.1,0,0.2,0.1
		c0,0.1,0.1,0.2,0.1,0.4c0,0.8-0.7,1.9-2.1,3.2c-1.4,1.3-2.9,2-4.5,2c-1.2,0-3.3-0.8-6.6-2.3c-3.2-1.5-5.9-2.3-8.1-2.3
		c-1.3,0-2.5,0.3-3.8,0.8c-1.3,0.6-2.6,1.4-3.9,2.6c-2.4,2-4.2,4.2-5.5,6.4c-1.3,2.2-1.9,4.3-1.9,6.4c0,1.5,0.3,2.7,0.9,3.6
		c0.6,0.9,1.4,1.3,2.4,1.3c1.9,0,3.9-1.5,5.9-4.6c2-3.1,3-6.5,3-10.3c0-0.3,0-0.7-0.1-1.1c0-0.4-0.1-0.7-0.1-0.8
		c0-0.2,0-0.3,0.1-0.4c0.1-0.1,0.2-0.2,0.3-0.2c0.3,0,0.7,0.6,1,1.7c0.3,1.2,0.5,2.5,0.5,4.1c0,3.8-0.9,7-2.7,9.5
		C26,33.1,23.8,34.3,21.2,34.3z M42.6,31.6c0.7-0.5,1.2-1,1.6-1.6c0.4-0.6,0.6-1.1,0.6-1.6c0-0.3-0.1-0.5-0.2-0.7
		c-0.1-0.2-0.3-0.3-0.4-0.3c-0.4,0-0.7,0.4-1,1.1C42.9,29.3,42.7,30.3,42.6,31.6z"/>
	<path id="XMLID_8_" d="M53.3,36.2c-0.5,0.6-1.2,1.5-2,2.5c-1.3,1.6-2,2.5-2.3,2.5c-0.1,0-0.2,0-0.3-0.1c-0.1-0.1-0.1-0.2-0.1-0.3
		c0-0.3,0.4-0.9,1.2-1.8c0.6-0.6,1-1.1,1.3-1.6l1.7-2.1c0.4-0.5,0.8-0.9,1.2-1.4c0.4-0.5,0.9-1.2,1.6-2.1l6-0.5l-6.1,13.2
		c-0.7,1.6-1.3,2.9-1.7,3.9c-0.4,1-0.6,1.6-0.6,1.8c0,0.2,0.1,0.4,0.2,0.5c0.1,0.2,0.3,0.3,0.4,0.3c0.8,0,2.4-1.7,4.7-5.2
		c2.3-3.5,5-8.1,7.9-13.9l6.6-0.5L66.6,46c-0.6,1.4-1,2.4-1.3,3.1c-0.2,0.7-0.4,1.2-0.4,1.5c0,0.1,0,0.3,0.1,0.3s0.2,0.1,0.4,0.1
		c0.5,0,1.1-0.4,1.9-1.1c0.8-0.7,1.9-1.9,3.3-3.6c0.9-1.1,2.1-2.5,3.6-4.4c4.4-5.4,7.1-8.1,7.9-8.1c0.1,0,0.2,0,0.4,0.1
		c0.1,0,0.2,0,0.2,0c-1.3,0.9-3.6,3.4-6.9,7.7c-1.3,1.7-2.3,2.9-3.1,3.8l-0.1,0.2C68.9,50.5,66,53,64,53c-1.1,0-2-0.4-2.6-1.2
		c-0.7-0.8-1-1.9-1-3.3c0-0.8,0.2-1.7,0.5-2.8c0.3-1.1,1-3,2.1-5.7c-3.3,5.7-5.6,9.3-6.9,10.7c-1.4,1.5-2.7,2.2-4,2.2
		c-1,0-1.8-0.4-2.5-1.2c-0.6-0.8-0.9-1.9-0.9-3.3c0-1.2,0.3-2.6,1-4.4C50.3,42.4,51.5,39.7,53.3,36.2z"/>
	<path id="XMLID_10_" d="M91,35c-1,0.1-1.8,0.2-2.2,0.3c-0.5,0-0.9,0.1-1.1,0.1c0,0-0.1,0-0.2,0c-0.3,0-0.6-0.1-0.9-0.1h-0.9
		l-2.2,2.6c-0.3,0.4-0.7,0.9-1.2,1.5c-0.8,1.1-1.4,1.7-1.7,1.7c-0.1,0-0.2-0.1-0.3-0.2c-0.1-0.1-0.1-0.2-0.1-0.4
		c0-0.2,0.5-1,1.5-2.1c0.5-0.6,0.8-1.1,1.1-1.4l1.9-2.4l0.1-0.3c0.6-3.2,1.2-4.7,1.5-4.7c0.2,0,0.4,0.1,0.5,0.3
		c0.1,0.2,0.2,0.5,0.2,0.9c0,0,0,0.1,0,0.3c0,0.2,0,0.4,0,0.5c0,0.6,0.1,1,0.4,1.2c0.3,0.2,1.1,0.4,2.4,0.6c1.8,0.2,3,0.6,3.8,1.2
		s1.1,1.4,1.1,2.5c0,1.1-1.1,3.4-3.2,7.1c-0.4,0.7-0.7,1.2-0.9,1.6c-0.1,0.2-0.3,0.4-0.5,0.8c-1.2,2.1-1.9,3.5-1.9,4.1
		c0,0.1,0,0.3,0.1,0.3c0.1,0.1,0.2,0.1,0.4,0.1c0.7,0,3.1-2.6,7.4-7.8l0.7-0.9c2.6-3.2,4.5-5.5,5.7-6.8c1.3-1.3,2.2-2,2.7-2
		c0,0,0.2,0,0.4,0.1c0.1,0,0.2,0,0.2,0c-1.4,1-3.7,3.4-6.7,7.4c-0.8,1.1-1.5,1.9-1.9,2.5l-0.4,0.5c-4.5,5.8-7.7,8.7-9.4,8.7
		c-1.1,0-2-0.4-2.7-1.3c-0.7-0.9-1-2.1-1-3.6c0-2.1,0.7-4.4,2.1-6.9C87.2,38.6,89,36.6,91,35z"/>
	<path id="XMLID_12_" d="M113.1,41.6c2.4-3.5,4.5-6.2,6.3-7.9c1.8-1.7,3.3-2.6,4.5-2.6c1.1,0,1.9,0.5,2.5,1.5c0.6,1,0.9,2.4,0.9,4.1
		c0,1.3-0.3,2.7-0.8,4.1c-0.5,1.4-1.6,3.5-3.3,6.1c-0.2,0.3-0.5,0.8-0.8,1.3c-0.8,1.2-1.1,2-1.1,2.4c0,0.2,0.1,0.3,0.2,0.4
		c0.1,0.1,0.3,0.2,0.4,0.2c0.4,0,1.2-0.5,2.3-1.5c1.1-1,2.4-2.5,4-4.4l1.1-1.3c5.5-6.7,8.7-10.1,9.6-10.1c0.1,0,0.2,0,0.4,0.1
		c0.1,0,0.2,0,0.2,0c-1.3,0.9-4.1,4-8.3,9.3l-0.7,0.9l-0.3,0.4c-4.4,5.7-7.6,8.5-9.4,8.5c-1,0-1.9-0.5-2.5-1.6c-0.7-1-1-2.4-1-4.1
		c0-1.2,0.2-2.5,0.7-3.7c0.5-1.2,1.4-2.9,2.7-5c0.4-0.6,0.9-1.4,1.6-2.4c1.1-1.6,1.7-2.6,1.7-2.9c0-0.2,0-0.4-0.1-0.5
		s-0.2-0.2-0.4-0.2c-1.4,0-3.5,1.8-6.2,5.3c-2.8,3.6-5.8,8.4-9.2,14.5l-7.3,0.5l4.3-8c1.4-2.6,2.4-4.5,3-5.9
		c0.6-1.4,0.9-2.3,0.9-2.7c0-0.2,0-0.4-0.1-0.5c-0.1-0.1-0.2-0.2-0.3-0.2c-0.3,0-1,0.6-2,1.9c-1,1.3-1.7,1.9-2,1.9
		c-0.1,0-0.1,0-0.2-0.1c-0.1,0-0.1-0.1-0.1-0.1c0-0.2,0.1-0.5,0.3-0.8c0.2-0.3,0.5-0.7,0.9-1.2c1.6-2.2,3-3.7,4-4.7
		c1-1,1.9-1.5,2.5-1.5c0.7,0,1.2,0.4,1.6,1.2s0.6,1.9,0.6,3.2c0,0.9-0.1,1.9-0.3,2.9C113.7,39.5,113.4,40.5,113.1,41.6z"/>
	<path id="XMLID_14_" d="M141.4,36.2l-1.6,2c-0.3,0.3-0.6,0.7-1,1.2c-0.8,1-1.2,1.5-1.4,1.5c-0.2,0-0.3,0-0.4-0.1
		c-0.1-0.1-0.1-0.1-0.1-0.3c0-0.3,0.3-0.8,1-1.5c0.5-0.6,0.9-1,1.2-1.4l1.8-2.2c0.1-0.1,0.2-0.2,0.3-0.4c1-1.3,1.8-2.4,2.5-3.4
		l5.7-0.5L143.7,44c-0.8,2-1.5,3.5-1.9,4.7c-0.4,1.2-0.7,1.9-0.7,2.2c0,0.2,0,0.3,0.1,0.4c0.1,0.1,0.2,0.2,0.4,0.2
		c0.5,0,1.4-0.6,2.7-1.9c1.3-1.3,2.9-3.2,4.8-5.6c3.3-4.2,5.6-7,6.8-8.2c1.2-1.3,2.1-1.9,2.6-1.9c0,0,0.2,0,0.4,0.1
		c0.1,0,0.2,0,0.2,0c-1.4,1-3.7,3.5-6.9,7.8c-1,1.4-1.9,2.5-2.4,3.2c-2.4,3.2-4.4,5.3-5.7,6.4c-1.4,1.1-2.6,1.7-3.8,1.7
		c-1,0-1.9-0.4-2.4-1.2c-0.6-0.8-0.9-1.9-0.9-3.3c0-1.8,1.2-5.3,3.5-10.5C140.9,37.3,141.2,36.7,141.4,36.2z M146.4,24.1
		c0-0.9,0.3-1.7,0.9-2.5c0.6-0.7,1.3-1.1,2.1-1.1c0.7,0,1.2,0.3,1.6,0.7c0.4,0.5,0.6,1.2,0.6,2c0,1-0.3,1.8-0.9,2.5
		c-0.6,0.7-1.3,1.1-2.1,1.1c-0.7,0-1.3-0.2-1.7-0.7S146.4,25,146.4,24.1z"/>
	<path id="XMLID_17_" d="M161,36.2c-0.5,0.6-1.2,1.5-2,2.5c-1.3,1.6-2,2.5-2.3,2.5c-0.1,0-0.2-0.1-0.3-0.2c-0.1-0.1-0.1-0.2-0.1-0.4
		c0-0.3,0.4-0.8,1.2-1.7c0.6-0.6,1-1.1,1.4-1.6l1.6-1.9c1.5-1.9,3.1-4.6,4.8-8.1c0.2-0.4,0.3-0.6,0.4-0.8l6.3-13l5.6-0.3l-4.1,8.9
		h3.9l-0.3,1.6h-4.5l-6.5,14.2c-1.4,3.1-2.6,5.8-3.4,8.2c-0.9,2.4-1.3,4-1.3,4.8c0,0.2,0.1,0.3,0.2,0.4c0.1,0.1,0.3,0.2,0.5,0.2
		c0.4,0,1.3-0.6,2.4-1.8c1.2-1.2,2.9-3.2,5.3-6.1l0.6-0.8c4.8-5.9,7.6-8.8,8.5-8.8c0.1,0,0.2,0,0.4,0.1c0.1,0,0.2,0,0.2,0
		c-1.3,0.9-3.5,3.3-6.5,7.2c-1.2,1.6-2.2,2.8-2.8,3.6l-0.4,0.5c-4.1,5.1-7,7.7-8.9,7.7c-1.1,0-1.9-0.4-2.5-1.3
		c-0.6-0.8-0.9-2-0.9-3.5c0-1.7,0.9-4.9,2.8-9.6C160.5,37.6,160.8,36.8,161,36.2z"/>
	<path id="XMLID_19_" d="M181.2,36.2c-0.5,0.6-1.2,1.5-2,2.5c-1.3,1.6-2,2.5-2.3,2.5c-0.1,0-0.2,0-0.3-0.1c-0.1-0.1-0.1-0.2-0.1-0.3
		c0-0.3,0.4-0.9,1.2-1.8c0.6-0.6,1-1.1,1.3-1.6l1.7-2.1c0.4-0.5,0.8-0.9,1.2-1.4c0.4-0.5,0.9-1.2,1.6-2.1l6-0.5l-6.1,13.2
		c-0.7,1.6-1.3,2.9-1.7,3.9c-0.4,1-0.6,1.6-0.6,1.8c0,0.2,0.1,0.4,0.2,0.5c0.1,0.2,0.3,0.3,0.4,0.3c0.8,0,2.4-1.7,4.7-5.2
		c2.3-3.5,5-8.1,7.9-13.9l6.6-0.5L194.5,46c-0.6,1.4-1,2.4-1.3,3.1c-0.2,0.7-0.4,1.2-0.4,1.5c0,0.1,0,0.3,0.1,0.3s0.2,0.1,0.4,0.1
		c0.5,0,1.1-0.4,1.9-1.1c0.8-0.7,1.9-1.9,3.3-3.6c0.9-1.1,2.1-2.5,3.6-4.4c4.4-5.4,7.1-8.1,7.9-8.1c0.1,0,0.2,0,0.4,0.1
		c0.1,0,0.2,0,0.2,0c-1.3,0.9-3.6,3.4-6.9,7.7c-1.3,1.7-2.3,2.9-3.1,3.8l-0.1,0.2c-3.9,4.9-6.8,7.3-8.7,7.3c-1.1,0-2-0.4-2.6-1.2
		c-0.7-0.8-1-1.9-1-3.3c0-0.8,0.2-1.7,0.5-2.8c0.3-1.1,1-3,2.1-5.7c-3.3,5.7-5.6,9.3-6.9,10.7c-1.4,1.5-2.7,2.2-4,2.2
		c-1,0-1.8-0.4-2.5-1.2c-0.6-0.8-0.9-1.9-0.9-3.3c0-1.2,0.3-2.6,1-4.4C178.2,42.4,179.4,39.7,181.2,36.2z"/>
	<path id="XMLID_21_" d="M218.9,35c-1,0.1-1.8,0.2-2.2,0.3c-0.5,0-0.9,0.1-1.1,0.1c0,0-0.1,0-0.2,0c-0.3,0-0.6-0.1-0.9-0.1h-0.9
		l-2.2,2.6c-0.3,0.4-0.7,0.9-1.2,1.5c-0.8,1.1-1.4,1.7-1.7,1.7c-0.1,0-0.2-0.1-0.3-0.2c-0.1-0.1-0.1-0.2-0.1-0.4
		c0-0.2,0.5-1,1.5-2.1c0.5-0.6,0.8-1.1,1.1-1.4l1.9-2.4l0.1-0.3c0.6-3.2,1.2-4.7,1.5-4.7c0.2,0,0.4,0.1,0.5,0.3
		c0.1,0.2,0.2,0.5,0.2,0.9c0,0,0,0.1,0,0.3c0,0.2,0,0.4,0,0.5c0,0.6,0.1,1,0.4,1.2c0.3,0.2,1.1,0.4,2.4,0.6c1.8,0.2,3,0.6,3.8,1.2
		s1.1,1.4,1.1,2.5c0,1.1-1.1,3.4-3.2,7.1c-0.4,0.7-0.7,1.2-0.9,1.6c-0.1,0.2-0.3,0.4-0.5,0.8c-1.2,2.1-1.9,3.5-1.9,4.1
		c0,0.1,0,0.3,0.1,0.3c0.1,0.1,0.2,0.1,0.4,0.1c0.7,0,3.1-2.6,7.4-7.8l0.7-0.9c2.6-3.2,4.5-5.5,5.7-6.8c1.3-1.3,2.2-2,2.7-2
		c0,0,0.2,0,0.4,0.1c0.1,0,0.2,0,0.2,0c-1.4,1-3.7,3.4-6.7,7.4c-0.8,1.1-1.5,1.9-1.9,2.5l-0.4,0.5c-4.5,5.8-7.7,8.7-9.4,8.7
		c-1.1,0-2-0.4-2.7-1.3c-0.7-0.9-1-2.1-1-3.6c0-2.1,0.7-4.4,2.1-6.9C215.2,38.6,216.9,36.6,218.9,35z"/>
	<path id="XMLID_23_" d="M235.8,45.4c-0.4,1.5-0.7,2.6-0.9,3.3c-0.2,0.7-0.2,1.3-0.2,1.7c0,0.5,0.1,0.8,0.4,1
		c0.3,0.2,0.7,0.3,1.3,0.3c1.4,0,2.9-0.5,4.5-1.6c1.6-1.1,3.8-3.2,6.7-6.4c1-1,2.2-2.5,3.8-4.3c3.3-3.8,5.3-5.7,6-5.7
		c0,0,0.1,0,0.2,0.1c0.1,0,0.2,0.1,0.3,0.1c-1.2,0.8-3,2.7-5.5,5.8c-1.2,1.5-2.2,2.7-2.9,3.5c-3.5,4-6.2,6.7-8,7.9
		c-1.8,1.2-3.6,1.9-5.3,1.9c-1.9,0-3.3-0.7-4.5-2S230,48,230,45.9c0-1.8,0.4-3.5,1.3-5.3s2.1-3.4,3.8-5.1c1.5-1.4,2.9-2.5,4.4-3.3
		c1.5-0.8,2.8-1.2,4-1.2c1.1,0,2,0.4,2.6,1.2c0.6,0.8,0.9,1.9,0.9,3.2c0,2.2-1.1,4.2-3.2,6.1S239.1,44.7,235.8,45.4z M236.1,44.3
		c2.3-0.4,4.3-1.7,6-3.7c1.8-2.1,2.6-4.1,2.6-6c0-0.5-0.1-1-0.4-1.4c-0.2-0.4-0.5-0.6-0.9-0.6c-0.9,0-2.1,1.1-3.7,3.4
		C238.4,38.2,237.1,41,236.1,44.3z"/>
	<path id="XMLID_26_" d="M259.1,43.4l1.4-3.4H272l-1.4,3.4H259.1z"/>
	<path id="XMLID_28_" d="M285,34.8c-1.1,1-2.3,2.3-3.5,3.9c-1.2,1.6-1.9,2.4-2.2,2.4c-0.1,0-0.2-0.1-0.3-0.2
		c-0.1-0.1-0.1-0.2-0.1-0.4c0-0.3,0.4-0.9,1.2-1.9c0.4-0.4,0.7-0.8,0.9-1.1l1.6-2c0.2-0.2,0.5-0.5,0.8-1c1.3-1.6,2.1-2.6,2.4-3.1
		c0.1-0.2,0.3-0.6,0.5-1.1c0.4-0.9,0.8-1.4,1.1-1.4c0.2,0,0.3,0.1,0.4,0.2c0.1,0.2,0.2,0.3,0.2,0.5c0,0.2-0.2,0.6-0.7,1.3
		c-0.5,0.7-0.7,1.2-0.7,1.7c0,0.4,0.5,1.6,1.5,3.5c1,1.9,1.5,4,1.5,6.2c0,1.1-0.1,2-0.4,2.9c-0.3,0.9-0.8,1.8-1.5,2.8
		c2.3-2.2,4.9-5.2,8-8.9c3.1-3.7,5-5.5,5.8-5.5c0.4,0,0.7-0.1,0.9-0.3c0,0-0.1,0-0.1,0.1c0,0.1-0.1,0.2-0.2,0.3
		c-1.4,1-3.4,3.2-5.9,6.5c-0.9,1.2-1.6,2.1-2.1,2.8c-3.3,4.2-5.8,6.9-7.6,8.1c-1.7,1.2-3.4,1.9-5.2,1.9c-1.4,0-2.6-0.5-3.5-1.4
		s-1.4-2-1.4-3.3c0-0.9,0.2-1.6,0.7-2.2c0.5-0.6,1-0.9,1.7-0.9c0.6,0,1.1,0.2,1.4,0.7c0.4,0.5,0.5,1.1,0.5,1.9
		c0,0.6-0.2,1.1-0.5,1.6c-0.4,0.5-0.7,0.7-1.1,0.7c-0.2,0-0.3,0-0.4,0c-0.1,0-0.2-0.1-0.3-0.1c0.3,0.4,0.6,0.7,0.9,0.9
		c0.3,0.2,0.6,0.3,1,0.3c1.5,0,2.6-1.4,3.5-4.1c0.9-2.7,1.3-6.3,1.3-10.8V34.8z"/>
	<path id="XMLID_30_" d="M304.2,36.2c-0.5,0.6-1.2,1.5-2,2.5c-1.3,1.6-2,2.5-2.3,2.5c-0.1,0-0.2-0.1-0.3-0.2
		c-0.1-0.1-0.1-0.2-0.1-0.4c0-0.3,0.4-0.8,1.2-1.7c0.6-0.6,1-1.1,1.4-1.6l1.6-1.9c1.5-1.9,3.1-4.6,4.8-8.1c0.2-0.4,0.3-0.6,0.4-0.8
		l6.3-13l5.6-0.3l-4.1,8.9h3.9l-0.3,1.6h-4.5L309,37.8c-1.4,3.1-2.6,5.8-3.4,8.2c-0.9,2.4-1.3,4-1.3,4.8c0,0.2,0.1,0.3,0.2,0.4
		c0.1,0.1,0.3,0.2,0.5,0.2c0.4,0,1.3-0.6,2.4-1.8c1.2-1.2,2.9-3.2,5.3-6.1l0.6-0.8c4.8-5.9,7.6-8.8,8.5-8.8c0.1,0,0.2,0,0.4,0.1
		c0.1,0,0.2,0,0.2,0c-1.3,0.9-3.5,3.3-6.5,7.2c-1.2,1.6-2.2,2.8-2.8,3.6l-0.4,0.5c-4.1,5.1-7,7.7-8.9,7.7c-1.1,0-1.9-0.4-2.5-1.3
		c-0.6-0.8-0.9-2-0.9-3.5c0-1.7,0.9-4.9,2.8-9.6C303.6,37.6,303.9,36.8,304.2,36.2z"/>
	<path id="XMLID_32_" d="M332.8,48c1.6-0.3,3.6-2,6.1-5c0.4-0.5,0.7-0.9,0.9-1.1c2.3-2.9,4.1-4.9,5.3-6.2s2.1-1.9,2.6-1.9
		c0.1,0,0.2,0,0.4,0.1c0.1,0,0.2,0,0.2,0c-1.3,0.9-3.5,3.2-6.4,7c-1.5,1.9-2.6,3.3-3.5,4.4c-1.3,1.6-2.4,2.7-3.5,3.4s-2.2,1-3.4,1
		h-0.3c-1.3,1.2-2.4,2.1-3.4,2.6c-1,0.5-2.1,0.7-3.3,0.7c-1.6,0-3-0.6-4-1.9c-1-1.3-1.5-3-1.5-5c0-1.8,0.5-3.8,1.5-5.8
		c1-2,2.4-3.8,4.1-5.4c1.3-1.2,2.7-2.2,4.1-2.9c1.4-0.7,2.8-1,3.9-1c1.6,0,2.8,0.5,3.7,1.6c0.9,1.1,1.3,2.6,1.3,4.5
		c0,1.7-0.4,3.4-1.1,5.1C335.8,43.9,334.6,45.8,332.8,48z M329.3,49.4c-0.1-0.2-0.1-0.4-0.2-0.6c0-0.1-0.1-0.3-0.1-0.4
		c0-0.7,0.3-1.3,0.8-1.9c0.5-0.6,1.2-0.8,2-0.8h0.1c1.2-1.9,2.2-3.7,2.8-5.4c0.7-1.7,1-3.2,1-4.4c0-1.1-0.2-1.9-0.5-2.5
		c-0.4-0.6-0.9-0.9-1.5-0.9c-0.9,0-2,0.9-3.4,2.7c-1.4,1.8-2.8,4.3-4.2,7.4c-0.7,1.5-1.2,2.8-1.5,3.9c-0.3,1.1-0.5,2.1-0.5,2.9
		c0,0.7,0.1,1.3,0.4,1.6c0.3,0.3,0.6,0.5,1.2,0.5s1.1-0.2,1.8-0.6C328.1,50.6,328.7,50.1,329.3,49.4z"/>
	<path id="XMLID_35_" d="M356.3,35c-1,0.1-1.8,0.2-2.2,0.3s-0.8,0.1-1.1,0.1c0,0-0.1,0-0.2,0c-0.3,0-0.6-0.1-0.9-0.1H351l-2.2,2.6
		c-0.3,0.4-0.7,0.9-1.2,1.5c-0.8,1.1-1.4,1.7-1.7,1.7c-0.1,0-0.2-0.1-0.3-0.2c-0.1-0.1-0.1-0.2-0.1-0.4c0-0.2,0.5-1,1.5-2.1
		c0.5-0.6,0.8-1.1,1.1-1.4l1.9-2.4l0.1-0.3c0.6-3.2,1.2-4.7,1.5-4.7c0.2,0,0.4,0.1,0.5,0.3c0.1,0.2,0.2,0.5,0.2,0.9c0,0,0,0.1,0,0.3
		c0,0.2,0,0.4,0,0.5c0,0.6,0.1,1,0.4,1.2c0.3,0.2,1.1,0.4,2.4,0.6c1.8,0.2,3,0.6,3.8,1.2c0.7,0.6,1.1,1.4,1.1,2.5
		c0,1.1-1.1,3.4-3.2,7.1c-0.4,0.7-0.7,1.2-0.9,1.6c-0.1,0.2-0.3,0.4-0.5,0.8c-1.2,2.1-1.9,3.5-1.9,4.1c0,0.1,0,0.3,0.1,0.3
		c0.1,0.1,0.2,0.1,0.4,0.1c0.7,0,3.1-2.6,7.4-7.8l0.7-0.9c2.6-3.2,4.5-5.5,5.7-6.8c1.3-1.3,2.2-2,2.7-2c0,0,0.2,0,0.4,0.1
		c0.1,0,0.2,0,0.2,0c-1.4,1-3.7,3.4-6.7,7.4c-0.8,1.1-1.5,1.9-1.9,2.5l-0.4,0.5c-4.5,5.8-7.7,8.7-9.4,8.7c-1.1,0-2-0.4-2.7-1.3
		c-0.7-0.9-1-2.1-1-3.6c0-2.1,0.7-4.4,2.1-6.9C352.6,38.6,354.3,36.6,356.3,35z"/>
	<path id="XMLID_37_" d="M373.2,45.4c-0.4,1.5-0.7,2.6-0.9,3.3c-0.2,0.7-0.2,1.3-0.2,1.7c0,0.5,0.1,0.8,0.4,1
		c0.3,0.2,0.7,0.3,1.3,0.3c1.4,0,2.9-0.5,4.5-1.6c1.6-1.1,3.8-3.2,6.7-6.4c1-1,2.2-2.5,3.8-4.3c3.3-3.8,5.3-5.7,6-5.7
		c0,0,0.1,0,0.2,0.1s0.2,0.1,0.3,0.1c-1.2,0.8-3,2.7-5.5,5.8c-1.2,1.5-2.2,2.7-2.9,3.5c-3.5,4-6.2,6.7-8,7.9
		c-1.8,1.2-3.6,1.9-5.3,1.9c-1.9,0-3.3-0.7-4.5-2c-1.1-1.3-1.7-3.1-1.7-5.2c0-1.8,0.4-3.5,1.3-5.3c0.8-1.7,2.1-3.4,3.8-5.1
		c1.5-1.4,2.9-2.5,4.4-3.3c1.5-0.8,2.8-1.2,4-1.2c1.1,0,2,0.4,2.6,1.2c0.6,0.8,0.9,1.9,0.9,3.2c0,2.2-1.1,4.2-3.2,6.1
		C379.3,43.4,376.5,44.7,373.2,45.4z M373.5,44.3c2.3-0.4,4.3-1.7,6-3.7c1.8-2.1,2.6-4.1,2.6-6c0-0.5-0.1-1-0.4-1.4
		c-0.2-0.4-0.5-0.6-0.8-0.6c-0.9,0-2.1,1.1-3.7,3.4S374.5,41,373.5,44.3z"/>
</g>
</svg>
